<svg xmlns="http://www.w3.org/2000/svg" width="200" height="200" viewBox="0 0 200 200" fill="none">
  <title>Phosphonate — R-P(=O)(OR&#39;)₂</title>
  <circle cx="100" cy="100" r="82" stroke="#000087" stroke-width="0.5" fill="none" opacity="0.18"></circle>
  <circle cx="100" cy="100" r="56" stroke="#000087" stroke-width="0.5" fill="none" opacity="0.28"></circle>
  <line x1="103.0" y1="100.0" x2="103.0" y2="38.0" stroke="#000087" stroke-width="1.2" opacity="0.75"></line>
  <line x1="97.0" y1="100.0" x2="97.0" y2="38.0" stroke="#000087" stroke-width="1.2" opacity="0.75"></line>
  <line x1="100" y1="100" x2="153" y2="72" stroke="#000087" stroke-width="1.2" opacity="0.75"></line>
  <line x1="153" y1="72" x2="185" y2="50" stroke="#000087" stroke-width="1.2" opacity="0.75"></line>
  <line x1="100" y1="100" x2="153" y2="128" stroke="#000087" stroke-width="1.2" opacity="0.75"></line>
  <line x1="153" y1="128" x2="185" y2="150" stroke="#000087" stroke-width="1.2" opacity="0.75"></line>
  <line x1="100" y1="100" x2="47" y2="130" stroke="#000087" stroke-width="1.2" opacity="0.75"></line>
  <circle cx="100" cy="100" r="16" fill="#000087" stroke="#000087" stroke-width="1.5"></circle>
  <text x="100" y="104" text-anchor="middle" font-family="Inconsolata, monospace" font-size="11" font-weight="700" fill="#FFFFFF">P</text>
  <circle cx="100" cy="38" r="10" fill="#FFFFFF" stroke="#000087" stroke-width="1.5"></circle>
  <text x="100" y="42" text-anchor="middle" font-family="Inconsolata, monospace" font-size="11" font-weight="700" fill="#000087">O</text>
  <circle cx="153" cy="72" r="10" fill="#FFFFFF" stroke="#000087" stroke-width="1.5"></circle>
  <text x="153" y="76" text-anchor="middle" font-family="Inconsolata, monospace" font-size="11" font-weight="700" fill="#000087">O</text>
  <circle cx="185" cy="50" r="6" fill="#FFFFFF" stroke="#000087" stroke-width="1.5"></circle>
  <circle cx="153" cy="128" r="10" fill="#FFFFFF" stroke="#000087" stroke-width="1.5"></circle>
  <text x="153" y="132" text-anchor="middle" font-family="Inconsolata, monospace" font-size="11" font-weight="700" fill="#000087">O</text>
  <circle cx="185" cy="150" r="6" fill="#FFFFFF" stroke="#000087" stroke-width="1.5"></circle>
  <circle cx="47" cy="130" r="6" fill="#FFFFFF" stroke="#000087" stroke-width="1.5"></circle>
</svg>