<svg xmlns="http://www.w3.org/2000/svg" width="200" height="200" viewBox="0 0 200 200" fill="none">
  <title>Phosphorane / Ylide — R₃P=CR&#39;R&#39;&#39;</title>
  <circle cx="100" cy="100" r="82" stroke="#000087" stroke-width="0.5" fill="none" opacity="0.18"></circle>
  <circle cx="100" cy="100" r="56" stroke="#000087" stroke-width="0.5" fill="none" opacity="0.28"></circle>
  <line x1="72.0" y1="103.0" x2="128.0" y2="103.0" stroke="#000087" stroke-width="1.2" opacity="0.75"></line>
  <line x1="72.0" y1="97.0" x2="128.0" y2="97.0" stroke="#000087" stroke-width="1.2" opacity="0.75"></line>
  <line x1="72" y1="100" x2="30" y2="50" stroke="#000087" stroke-width="1.2" opacity="0.75"></line>
  <line x1="72" y1="100" x2="30" y2="150" stroke="#000087" stroke-width="1.2" opacity="0.75"></line>
  <line x1="72" y1="100" x2="25" y2="100" stroke="#000087" stroke-width="1.2" opacity="0.75"></line>
  <line x1="128" y1="100" x2="170" y2="50" stroke="#000087" stroke-width="1.2" opacity="0.75"></line>
  <line x1="128" y1="100" x2="170" y2="150" stroke="#000087" stroke-width="1.2" opacity="0.75"></line>
  <circle cx="72" cy="100" r="14" fill="#000087" stroke="#000087" stroke-width="1.5"></circle>
  <text x="72" y="104" text-anchor="middle" font-family="Inconsolata, monospace" font-size="11" font-weight="700" fill="#FFFFFF">P</text>
  <circle cx="128" cy="100" r="12" fill="#FFFFFF" stroke="#000087" stroke-width="1.5"></circle>
  <text x="128" y="104" text-anchor="middle" font-family="Inconsolata, monospace" font-size="11" font-weight="700" fill="#000087">C</text>
  <circle cx="30" cy="50" r="6" fill="#FFFFFF" stroke="#000087" stroke-width="1.5"></circle>
  <circle cx="30" cy="150" r="6" fill="#FFFFFF" stroke="#000087" stroke-width="1.5"></circle>
  <circle cx="25" cy="100" r="6" fill="#FFFFFF" stroke="#000087" stroke-width="1.5"></circle>
  <circle cx="170" cy="50" r="6" fill="#FFFFFF" stroke="#000087" stroke-width="1.5"></circle>
  <circle cx="170" cy="150" r="6" fill="#FFFFFF" stroke="#000087" stroke-width="1.5"></circle>
</svg>