<svg xmlns="http://www.w3.org/2000/svg" width="200" height="200" viewBox="0 0 200 200" fill="none">
  <title>Chemical Intermediate — heterocyclic platform</title>
  <circle cx="100" cy="100" r="88" stroke="#000087" stroke-width="0.5" fill="none" opacity="0.18"></circle>
  <circle cx="100" cy="103" r="28" stroke="#000087" stroke-width="1.2" opacity="0.5" fill="none"></circle>
  <line x1="100" y1="50" x2="148" y2="78" stroke="#000087" stroke-width="1.2" opacity="0.75"></line>
  <line x1="148" y1="78" x2="148" y2="128" stroke="#000087" stroke-width="1.2" opacity="0.75"></line>
  <line x1="148" y1="128" x2="100" y2="156" stroke="#000087" stroke-width="1.2" opacity="0.75"></line>
  <line x1="100" y1="156" x2="52" y2="128" stroke="#000087" stroke-width="1.2" opacity="0.75"></line>
  <line x1="52" y1="128" x2="52" y2="78" stroke="#000087" stroke-width="1.2" opacity="0.75"></line>
  <line x1="52" y1="78" x2="100" y2="50" stroke="#000087" stroke-width="1.2" opacity="0.75"></line>
  <line x1="100" y1="156" x2="100" y2="188" stroke="#000087" stroke-width="1.2" opacity="0.75"></line>
  <line x1="148" y1="128" x2="180" y2="152" stroke="#000087" stroke-width="1.2" opacity="0.75"></line>
  <line x1="52" y1="128" x2="20" y2="152" stroke="#000087" stroke-width="1.2" opacity="0.75"></line>
  <circle cx="100" cy="50" r="10" fill="#FFFFFF" stroke="#000087" stroke-width="1.5"></circle>
  <text x="100" y="54" text-anchor="middle" font-family="Inconsolata, monospace" font-size="11" font-weight="700" fill="#000087">N</text>
  <circle cx="148" cy="78" r="7" fill="#FFFFFF" stroke="#000087" stroke-width="1.5"></circle>
  <circle cx="148" cy="128" r="7" fill="#FFFFFF" stroke="#000087" stroke-width="1.5"></circle>
  <circle cx="100" cy="156" r="7" fill="#FFFFFF" stroke="#000087" stroke-width="1.5"></circle>
  <circle cx="52" cy="128" r="7" fill="#FFFFFF" stroke="#000087" stroke-width="1.5"></circle>
  <circle cx="52" cy="78" r="7" fill="#FFFFFF" stroke="#000087" stroke-width="1.5"></circle>
  <circle cx="100" cy="188" r="5" fill="#FFFFFF" stroke="#000087" stroke-width="1.5"></circle>
  <circle cx="180" cy="152" r="5" fill="#FFFFFF" stroke="#000087" stroke-width="1.5"></circle>
  <circle cx="20" cy="152" r="5" fill="#FFFFFF" stroke="#000087" stroke-width="1.5"></circle>
</svg>