<svg width="416" height="416" viewBox="0 0 416 416" fill="none" xmlns="http://www.w3.org/2000/svg">
<path opacity="0.75" d="M208 208V91.52" stroke="#B9C6DB" stroke-width="1.2"/>
<path opacity="0.75" d="M208 208L316.16 270.4" stroke="#B9C6DB" stroke-width="1.2"/>
<path opacity="0.75" d="M208 208L99.8399 270.4" stroke="#B9C6DB" stroke-width="1.2"/>
<path opacity="0.75" d="M208 208V332.8" stroke="#B9C6DB" stroke-width="1.2"/>
<path opacity="0.75" d="M208 208L353.6 353.6" stroke="#B9C6DB" stroke-width="1.2"/>
<path opacity="0.75" d="M208 208L62.3999 353.6" stroke="#B9C6DB" stroke-width="1.2"/>
<path opacity="0.75" d="M208 208L374.4 145.6" stroke="#B9C6DB" stroke-width="1.2"/>
<path d="M208 241.28C226.38 241.28 241.28 226.38 241.28 208C241.28 189.62 226.38 174.72 208 174.72C189.62 174.72 174.72 189.62 174.72 208C174.72 226.38 189.62 241.28 208 241.28Z" fill="#B9C6DB" stroke="#B9C6DB" stroke-width="1.5"/>
<path d="M202.538 203.44V196.587H204.87C205.405 196.587 205.842 196.679 206.179 196.862C206.524 197.045 206.777 197.287 206.938 197.588C207.107 197.889 207.191 198.226 207.191 198.6C207.191 198.871 207.143 199.128 207.048 199.37C206.96 199.605 206.821 199.814 206.63 199.997C206.447 200.173 206.212 200.312 205.926 200.415C205.647 200.518 205.314 200.569 204.925 200.569H203.803V203.44H202.538ZM203.803 199.535H204.837C205.072 199.535 205.27 199.495 205.431 199.414C205.592 199.333 205.713 199.223 205.794 199.084C205.875 198.945 205.915 198.783 205.915 198.6C205.915 198.417 205.875 198.255 205.794 198.116C205.713 197.977 205.592 197.867 205.431 197.786C205.277 197.705 205.083 197.665 204.848 197.665H203.803V199.535Z" fill="#B9C6DB"/>
<path d="M208 112.32C219.488 112.32 228.8 103.007 228.8 91.52C228.8 80.0324 219.488 70.72 208 70.72C196.513 70.72 187.2 80.0324 187.2 91.52C187.2 103.007 196.513 112.32 208 112.32Z" fill="#B9C6DB" stroke="#B9C6DB" stroke-width="1.5"/>
<path d="M204.782 87.092C204.217 87.092 203.744 86.9526 203.363 86.674C202.989 86.3953 202.703 85.992 202.505 85.464C202.314 84.936 202.219 84.2943 202.219 83.539C202.219 82.7983 202.314 82.1676 202.505 81.647C202.703 81.119 202.989 80.7156 203.363 80.437C203.744 80.151 204.217 80.008 204.782 80.008C205.339 80.008 205.805 80.151 206.179 80.437C206.56 80.7156 206.846 81.119 207.037 81.647C207.235 82.1676 207.334 82.7983 207.334 83.539C207.334 84.2943 207.235 84.9396 207.037 85.475C206.846 86.003 206.56 86.4063 206.179 86.685C205.805 86.9563 205.339 87.092 204.782 87.092ZM204.782 86.08C205.061 86.08 205.295 85.9883 205.486 85.805C205.684 85.6143 205.834 85.332 205.937 84.958C206.047 84.5766 206.102 84.1 206.102 83.528C206.102 82.9926 206.047 82.538 205.937 82.164C205.834 81.79 205.684 81.5076 205.486 81.317C205.295 81.119 205.061 81.02 204.782 81.02C204.503 81.02 204.265 81.119 204.067 81.317C203.869 81.5076 203.715 81.79 203.605 82.164C203.502 82.538 203.451 82.9926 203.451 83.528C203.451 84.1 203.502 84.5766 203.605 84.958C203.715 85.332 203.869 85.6143 204.067 85.805C204.265 85.9883 204.503 86.08 204.782 86.08Z" fill="#B9C6DB"/>
<path d="M316.16 291.2C327.647 291.2 336.96 281.887 336.96 270.4C336.96 258.912 327.647 249.6 316.16 249.6C304.672 249.6 295.36 258.912 295.36 270.4C295.36 281.887 304.672 291.2 316.16 291.2Z" fill="#B9C6DB" stroke="#B9C6DB" stroke-width="1.5"/>
<path d="M312.942 265.972C312.377 265.972 311.904 265.833 311.523 265.554C311.149 265.276 310.863 264.872 310.665 264.344C310.474 263.816 310.379 263.175 310.379 262.419C310.379 261.679 310.474 261.048 310.665 260.527C310.863 259.999 311.149 259.596 311.523 259.317C311.904 259.031 312.377 258.888 312.942 258.888C313.499 258.888 313.965 259.031 314.339 259.317C314.72 259.596 315.006 259.999 315.197 260.527C315.395 261.048 315.494 261.679 315.494 262.419C315.494 263.175 315.395 263.82 315.197 264.355C315.006 264.883 314.72 265.287 314.339 265.565C313.965 265.837 313.499 265.972 312.942 265.972ZM312.942 264.96C313.221 264.96 313.455 264.869 313.646 264.685C313.844 264.495 313.994 264.212 314.097 263.838C314.207 263.457 314.262 262.98 314.262 262.408C314.262 261.873 314.207 261.418 314.097 261.044C313.994 260.67 313.844 260.388 313.646 260.197C313.455 259.999 313.221 259.9 312.942 259.9C312.663 259.9 312.425 259.999 312.227 260.197C312.029 260.388 311.875 260.67 311.765 261.044C311.662 261.418 311.611 261.873 311.611 262.408C311.611 262.98 311.662 263.457 311.765 263.838C311.875 264.212 312.029 264.495 312.227 264.685C312.425 264.869 312.663 264.96 312.942 264.96Z" fill="#B9C6DB"/>
<path d="M99.84 291.2C111.328 291.2 120.64 281.887 120.64 270.4C120.64 258.912 111.328 249.6 99.84 249.6C88.3525 249.6 79.04 258.912 79.04 270.4C79.04 281.887 88.3525 291.2 99.84 291.2Z" fill="#B9C6DB" stroke="#B9C6DB" stroke-width="1.5"/>
<path d="M96.622 265.972C96.0574 265.972 95.5844 265.833 95.203 265.554C94.829 265.276 94.543 264.872 94.345 264.344C94.1544 263.816 94.059 263.175 94.059 262.419C94.059 261.679 94.1544 261.048 94.345 260.527C94.543 259.999 94.829 259.596 95.203 259.317C95.5844 259.031 96.0574 258.888 96.622 258.888C97.1794 258.888 97.645 259.031 98.019 259.317C98.4004 259.596 98.6864 259.999 98.877 260.527C99.075 261.048 99.174 261.679 99.174 262.419C99.174 263.175 99.075 263.82 98.877 264.355C98.6864 264.883 98.4004 265.287 98.019 265.565C97.645 265.837 97.1794 265.972 96.622 265.972ZM96.622 264.96C96.9007 264.96 97.1354 264.869 97.326 264.685C97.524 264.495 97.6744 264.212 97.777 263.838C97.887 263.457 97.942 262.98 97.942 262.408C97.942 261.873 97.887 261.418 97.777 261.044C97.6744 260.67 97.524 260.388 97.326 260.197C97.1354 259.999 96.9007 259.9 96.622 259.9C96.3434 259.9 96.105 259.999 95.907 260.197C95.709 260.388 95.555 260.67 95.445 261.044C95.3424 261.418 95.291 261.873 95.291 262.408C95.291 262.98 95.3424 263.457 95.445 263.838C95.555 264.212 95.709 264.495 95.907 264.685C96.105 264.869 96.3434 264.96 96.622 264.96Z" fill="#B9C6DB"/>
<path d="M208 345.28C214.893 345.28 220.48 339.692 220.48 332.8C220.48 325.907 214.893 320.32 208 320.32C201.108 320.32 195.52 325.907 195.52 332.8C195.52 339.692 201.108 345.28 208 345.28Z" fill="#B9C6DB" stroke="#B9C6DB" stroke-width="1.5"/>
<path d="M353.6 364C359.343 364 364 359.343 364 353.6C364 347.856 359.343 343.2 353.6 343.2C347.856 343.2 343.2 347.856 343.2 353.6C343.2 359.343 347.856 364 353.6 364Z" fill="#B9C6DB" stroke="#B9C6DB" stroke-width="1.5"/>
<path d="M62.4 364C68.1438 364 72.8 359.343 72.8 353.6C72.8 347.856 68.1438 343.2 62.4 343.2C56.6562 343.2 52 347.856 52 353.6C52 359.343 56.6562 364 62.4 364Z" fill="#B9C6DB" stroke="#B9C6DB" stroke-width="1.5"/>
<path d="M374.4 156C380.144 156 384.8 151.344 384.8 145.6C384.8 139.856 380.144 135.2 374.4 135.2C368.656 135.2 364 139.856 364 145.6C364 151.344 368.656 156 374.4 156Z" fill="#B9C6DB" stroke="#B9C6DB" stroke-width="1.5"/>
</svg>
