<svg xmlns="http://www.w3.org/2000/svg" width="200" height="200" viewBox="0 0 200 200" fill="none">
  <title>HWE β-ketophosphonate — line-art motif</title>
  <circle cx="100" cy="100" r="82" stroke="#000087" stroke-width="0.5" fill="none" opacity="0.18"></circle>
  <circle cx="100" cy="100" r="56" stroke="#000087" stroke-width="0.5" fill="none" opacity="0.28"></circle>
  <line x1="22" y1="70" x2="60" y2="70" stroke="#000087" stroke-width="1.2" opacity="0.75"></line>
  <line x1="22" y1="130" x2="60" y2="130" stroke="#000087" stroke-width="1.2" opacity="0.75"></line>
  <line x1="60" y1="70" x2="100" y2="100" stroke="#000087" stroke-width="1.2" opacity="0.75"></line>
  <line x1="60" y1="130" x2="100" y2="100" stroke="#000087" stroke-width="1.2" opacity="0.75"></line>
  <line x1="103.0" y1="100.0" x2="103.0" y2="44.0" stroke="#000087" stroke-width="1.2" opacity="0.75"></line>
  <line x1="97.0" y1="100.0" x2="97.0" y2="44.0" stroke="#000087" stroke-width="1.2" opacity="0.75"></line>
  <line x1="100" y1="100" x2="132" y2="132" stroke="#000087" stroke-width="1.2" opacity="0.75"></line>
  <line x1="132" y1="132" x2="158" y2="96" stroke="#000087" stroke-width="1.2" opacity="0.75"></line>
  <line x1="160.8" y1="97.0" x2="176.8" y2="51.0" stroke="#000087" stroke-width="1.2" opacity="0.75"></line>
  <line x1="155.2" y1="95.0" x2="171.2" y2="49.0" stroke="#000087" stroke-width="1.2" opacity="0.75"></line>
  <line x1="158" y1="96" x2="184" y2="152" stroke="#000087" stroke-width="1.2" opacity="0.75"></line>
  <circle cx="100" cy="100" r="16" fill="#000087" stroke="#000087" stroke-width="1.5"></circle>
  <text x="100" y="104" text-anchor="middle" font-family="Inconsolata, monospace" font-size="11" font-weight="700" fill="#FFFFFF">P</text>
  <circle cx="100" cy="44" r="10" fill="#FFFFFF" stroke="#000087" stroke-width="1.5"></circle>
  <text x="100" y="48" text-anchor="middle" font-family="Inconsolata, monospace" font-size="11" font-weight="700" fill="#000087">O</text>
  <circle cx="60" cy="70" r="10" fill="#FFFFFF" stroke="#000087" stroke-width="1.5"></circle>
  <text x="60" y="74" text-anchor="middle" font-family="Inconsolata, monospace" font-size="11" font-weight="700" fill="#000087">O</text>
  <circle cx="60" cy="130" r="10" fill="#FFFFFF" stroke="#000087" stroke-width="1.5"></circle>
  <text x="60" y="134" text-anchor="middle" font-family="Inconsolata, monospace" font-size="11" font-weight="700" fill="#000087">O</text>
  <circle cx="22" cy="70" r="5" fill="#FFFFFF" stroke="#000087" stroke-width="1.5"></circle>
  <circle cx="22" cy="130" r="5" fill="#FFFFFF" stroke="#000087" stroke-width="1.5"></circle>
  <circle cx="132" cy="132" r="6" fill="#FFFFFF" stroke="#000087" stroke-width="1.5"></circle>
  <circle cx="158" cy="96" r="6" fill="#FFFFFF" stroke="#000087" stroke-width="1.5"></circle>
  <circle cx="174" cy="50" r="8" fill="#FFFFFF" stroke="#000087" stroke-width="1.5"></circle>
  <text x="174" y="54" text-anchor="middle" font-family="Inconsolata, monospace" font-size="11" font-weight="700" fill="#000087">O</text>
  <circle cx="184" cy="152" r="5" fill="#FFFFFF" stroke="#000087" stroke-width="1.5"></circle>
</svg>